<?xml version="1.0" standalone="no"?>
<svg id="mapa" width="1150" height="905" xmlns="http://www.w3.org/2000/svg" style="display: block; margin: auto;"><defs><linearGradient id="gradienteAmareloVermelho" x1="0%" y1="100%" x2="100%" y2="0%"><stop offset="20%" style="stop-color: rgb(242, 242, 141); stop-opacity: 1;"/><stop offset="80%" style="stop-color: rgb(251, 125, 127); stop-opacity: 1;"/></linearGradient><linearGradient id="gradienteVerdeAmarelo" x1="0%" y1="100%" x2="100%" y2="0%"><stop offset="20%" style="stop-color: rgb(134, 223, 142); stop-opacity: 1;"/><stop offset="80%" style="stop-color: rgb(242, 242, 141); stop-opacity: 1;"/></linearGradient><linearGradient id="gradienteVerdeAmareloVermelho" x1="0%" y1="100%" x2="100%" y2="0%"><stop offset="0%" style="stop-color: rgb(168, 229, 78); stop-opacity: 1;"/><stop offset="30%" style="stop-color: rgb(242, 242, 141); stop-opacity: 1;"/><stop offset="70%" style="stop-color: rgb(242, 242, 141); stop-opacity: 1;"/><stop offset="100%" style="stop-color: rgb(247, 188, 133); stop-opacity: 1;"/></linearGradient><linearGradient id="gradienteMedioAltoVermelho" x1="0%" y1="100%" x2="100%" y2="0%"><stop offset="0%" style="stop-color: rgb(247, 188, 133); stop-opacity: 1;"/><stop offset="30%" style="stop-color: rgb(251, 125, 127); stop-opacity: 1;"/></linearGradient><linearGradient id="gradienteVerdeMedioAlto" x1="0%" y1="100%" x2="100%" y2="0%"><stop offset="70%" style="stop-color: rgb(134, 223, 142); stop-opacity: 1;"/><stop offset="100%" style="stop-color: rgb(168, 229, 78); stop-opacity: 1;"/></linearGradient><clipPath><rect fill="none" width="94" height="115"/></clipPath></defs><text text-anchor="middle" x="0" y="0" fill="black" transform="translate(50, 425) rotate(-90)">Poder Econômico  (escala logarítmica)</text><g><g><text y="35" x="65" fill="black" style="font-weight: bolder;">1 trilhão</text><g class="quadrante"><rect x="135" y="30" width="264" height="160" stroke="white" stroke-width="1" fill="#f7bc85" fill-opacity="1"/><polygon fill="#f2f28d" points="&#10;      135,30&#10;      311,190&#10;      135,190&#10;    "/></g><g class="quadrante"><rect x="399" y="30" width="264" height="160" stroke="white" stroke-width="1" fill="#fb7d7f" fill-opacity="1"/><polygon fill="#f7bc85" points="&#10;          399,30&#10;          399,30&#10;          575,190&#10;          399,190&#10;        "/></g><g class="quadrante"><rect x="663" y="30" width="220" height="160" stroke="white" stroke-width="1" fill="#fb7d7f" fill-opacity="1"/></g><g class="quadrante"><rect x="883" y="30" width="132" height="160" stroke="white" stroke-width="1" fill="#fb7d7f" fill-opacity="1"/></g></g><g><text y="195" x="65" fill="black" style="font-weight: bolder;">100 bi</text><g class="quadrante"><rect x="135" y="190" width="264" height="160" stroke="white" stroke-width="1" fill="#f2f28d" fill-opacity="1"/><polygon fill="#f7bc85" points="&#10;      311,191&#10;      398,270&#10;      398,190&#10;    "/></g><g class="quadrante"><rect x="399" y="190" width="264" height="160" stroke="white" stroke-width="1" fill="#f7bc85" fill-opacity="1"/><polygon fill="#f2f28d" points="&#10;      399,270&#10;      487,350&#10;      399,350&#10;    "/><polygon fill="#fb7d7f" points="&#10;      575,191&#10;      662,270&#10;      662,190&#10;    " opacity="1"/></g><g class="quadrante"><rect x="663" y="190" width="220" height="160" stroke="white" stroke-width="1" fill="#fb7d7f" fill-opacity="1"/><polygon fill="#f7bc85" points="&#10;      663,270&#10;      751,350&#10;      663,350&#10;    "/></g><g class="quadrante"><rect x="883" y="190" width="132" height="160" stroke="white" stroke-width="1" fill="#fb7d7f" fill-opacity="1"/></g></g><g><text y="355" x="65" fill="black" style="font-weight: bolder;">10 bi</text><g class="quadrante"><rect x="135" y="350" width="264" height="160" stroke="white" stroke-width="1" fill="#f2f28d" fill-opacity="1"/><polygon fill="#86df8e" points="&#10;      135,350&#10;      311,510&#10;      135,510&#10;    "/></g><g class="quadrante"><rect x="399" y="350" width="264" height="160" stroke="white" stroke-width="1" fill="#f2f28d" fill-opacity="1"/><polygon fill="#f7bc85" points="&#10;      487,351&#10;      662,510&#10;      662,350&#10;    "/></g><g class="quadrante"><rect x="663" y="350" width="220" height="160" stroke="white" stroke-width="1" fill="#f7bc85" fill-opacity="1"/><polygon fill="#fb7d7f" points="&#10;      751,351&#10;      882,470.00000000000006&#10;      882,350&#10;    "/></g><g class="quadrante"><rect x="883" y="350" width="132" height="160" stroke="white" stroke-width="1" fill="#fb7d7f" fill-opacity="1"/><polygon fill="#f7bc85" points="&#10;      883,470.00000000000006&#10;      927.0000000000001,510&#10;      883,510&#10;    "/></g></g><g><text y="515" x="65" fill="black" style="font-weight: bolder;">1 bi</text><g class="quadrante"><rect x="135" y="510" width="264" height="160" stroke="white" stroke-width="1" fill="#86df8e" fill-opacity="1"/><polygon fill="#f2f28d" points="&#10;      311,511&#10;      398,590&#10;      398,510&#10;    "/></g><g class="quadrante"><rect x="399" y="510" width="264" height="160" stroke="white" stroke-width="1" fill="#f2f28d" fill-opacity="1"/><polygon fill="#86df8e" points="&#10;      399,590&#10;      487,670&#10;      399,670&#10;    "/></g><g class="quadrante"><rect x="663" y="510" width="220" height="160" stroke="white" stroke-width="1" fill="#f7bc85" fill-opacity="1"/><polygon fill="#f2f28d" points="&#10;      663,510&#10;      839,670&#10;      663,670&#10;    "/></g><g class="quadrante"><rect x="883" y="510" width="132" height="160" stroke="white" stroke-width="1" fill="#f7bc85" fill-opacity="1"/><polygon fill="#fb7d7f" points="&#10;      927.0000000000001,511&#10;      1014,590&#10;      1014,510&#10;    "/></g></g><g><text y="675" x="65" fill="black" style="font-weight: bolder;">100 mi</text><g class="quadrante"><rect x="135" y="670" width="264" height="160" stroke="white" stroke-width="1" fill="#86df8e" fill-opacity="1"/></g><g class="quadrante"><rect x="399" y="670" width="264" height="160" stroke="white" stroke-width="1" fill="#86df8e" fill-opacity="1"/><polygon fill="#f2f28d" points="&#10;      487,671&#10;      662,830&#10;      662,670&#10;    "/></g><g class="quadrante"><rect x="663" y="670" width="220" height="160" stroke="white" stroke-width="1" fill="#f2f28d" fill-opacity="1"/><polygon fill="#f7bc85" points="&#10;      839,671&#10;      882,710&#10;      882,670&#10;    "/></g><g class="quadrante"><rect x="883" y="670" width="132" height="160" stroke="white" stroke-width="1" fill="#f7bc85" fill-opacity="1"/><polygon fill="#f2f28d" points="&#10;      883,710&#10;      1015,830&#10;      883,830&#10;    "/></g></g></g><g><g class="orgao pequeno" style="cursor: pointer;"><circle cx="1015" cy="547.8552227791403" r="4"/></g><g class="orgao pequeno" style="cursor: pointer;"><circle cx="1015" cy="635.1406899920801" r="4"/></g><g class="orgao pequeno" style="cursor: pointer;"><circle cx="612.325612728396" cy="556.7110803074235" r="4"/></g><g class="orgao pequeno" style="cursor: pointer;"><circle cx="775.59361256" cy="562.491550103864" r="4"/></g><g class="orgao pequeno" style="cursor: pointer;"><circle cx="366.8435736557353" cy="653.5095921633845" r="4"/></g><g class="orgao pequeno" style="cursor: pointer;"><circle cx="612.32561272" cy="554.6299421493816" r="4"/></g><g class="orgao pequeno" style="cursor: pointer;"><circle cx="753.19591328" cy="610.5949039985472" r="4"/></g><g class="orgao pequeno" style="cursor: pointer;"><circle cx="472.3254192" cy="492.6093878069574" r="3"/><text text-anchor="middle" x="472.3254192" y="488.6093878069574">ANEEL</text></g><g class="orgao pequeno" style="cursor: pointer;"><circle cx="794.77740048" cy="667.6501870819416" r="4"/></g><g class="orgao pequeno" style="cursor: pointer;"><circle cx="498.16178624" cy="618.9710309276213" r="4"/></g><g class="orgao pequeno" style="cursor: pointer;"><circle cx="267.47593216" cy="584.3458415780549" r="4"/></g><g class="orgao pequeno" style="cursor: pointer;"><circle cx="783.15642672" cy="691.4363574364398" r="4"/></g><g class="orgao pequeno" style="cursor: pointer;"><circle cx="1015" cy="509.4017400791199" r="4"/></g><g class="orgao pequeno" style="cursor: pointer;"><circle cx="678.90955344" cy="570.5261627388444" r="4"/></g><g class="orgao pequeno" style="cursor: pointer;"><circle cx="355.22259952" cy="680.5052354651367" r="3"/><text text-anchor="middle" x="355.22259952" y="676.5052354651367">ANCINE</text></g><g class="orgao pequeno" style="cursor: pointer;"><circle cx="650.7922" cy="563.0118760043692" r="4"/></g><g class="orgao pequeno" style="cursor: pointer;"><circle cx="331.22603328205764" cy="366.46971393877664" r="3"/><text text-anchor="middle" x="331.22603328205764" y="362.46971393877664">AmE</text></g><g class="orgao pequeno" style="cursor: pointer;"><circle cx="571.8673926453787" cy="426.22672200033406" r="3"/><text text-anchor="middle" x="571.8673926453787" y="422.22672200033406">AmGT</text></g><g class="orgao pequeno" style="cursor: pointer;"><circle cx="683.7502327999999" cy="735.7414150959137" r="4"/></g><g class="orgao pequeno" style="cursor: pointer;"><circle cx="1015" cy="519.8447928559835" r="4"/></g><g class="orgao pequeno" style="cursor: pointer;"><circle cx="1015" cy="745.5618053126926" r="4"/></g><g class="orgao pequeno" style="cursor: pointer;"><circle cx="135" cy="570.1863688610049" r="4"/></g><g class="orgao pequeno" style="cursor: pointer;"><circle cx="135" cy="541.4135144265524" r="4"/></g><g class="orgao pequeno" style="cursor: pointer;"><circle cx="438.26819374198516" cy="474.5989435846036" r="3"/><text text-anchor="middle" x="438.26819374198516" y="470.5989435846036">BASA</text></g><g class="orgao pequeno" style="cursor: pointer;"><circle cx="135" cy="219.12302089455977" r="3"/><text text-anchor="middle" x="135" y="215.12302089455977">BB</text></g><g class="orgao pequeno" style="cursor: pointer;"><circle cx="355.0482677444392" cy="422.62481210041216" r="3"/><text text-anchor="middle" x="355.0482677444392" y="418.62481210041216">BNB</text></g><g class="orgao pequeno" style="cursor: pointer;"><circle cx="366.8435736557353" cy="457.7535880784933" r="3"/><text text-anchor="middle" x="366.8435736557353" y="453.7535880784933">BNDES</text></g><g class="orgao pequeno" style="cursor: pointer;"><circle cx="135" cy="641.2298430386979" r="4"/></g><g class="orgao pequeno" style="cursor: pointer;"><circle cx="135" cy="660.1133654554957" r="4"/></g><g class="orgao pequeno" style="cursor: pointer;"><circle cx="135" cy="757.10246706573" r="3"/><text text-anchor="middle" x="135" y="753.10246706573">BB SEGURIDADE</text></g><g class="orgao pequeno" style="cursor: pointer;"><circle cx="135" cy="785.9007157362652" r="3"/><text text-anchor="middle" x="135" y="781.9007157362652">BB TURISMO</text></g><g class="orgao pequeno" style="cursor: pointer;"><circle cx="366.8435736557353" cy="490.2589530637624" r="3"/><text text-anchor="middle" x="366.8435736557353" y="486.2589530637624">BNDESPAR</text></g><g class="orgao pequeno" style="cursor: pointer;"><circle cx="1015" cy="660.1601061388328" r="4"/></g><g class="orgao pequeno" style="cursor: pointer;"><circle cx="1015" cy="640.6614128827098" r="4"/></g><g class="orgao pequeno" style="cursor: pointer;"><circle cx="135" cy="797.6634335235043" r="3"/><text text-anchor="middle" x="135" y="793.6634335235043">CCCPM</text></g><g class="orgao pequeno" style="cursor: pointer;"><circle cx="135" cy="758.4774167592998" r="3"/><text text-anchor="middle" x="135" y="754.4774167592998">CFIAe</text></g><g class="orgao pequeno" style="cursor: pointer;"><circle cx="438.26819374198516" cy="310.7226875130866" r="3"/><text text-anchor="middle" x="438.26819374198516" y="306.7226875130866">CAIXA</text></g><g class="orgao pequeno" style="cursor: pointer;"><circle cx="683.7502328146459" cy="771.1945836619094" r="4"/></g><g class="orgao pequeno" style="cursor: pointer;"><circle cx="612.325612728396" cy="521.8572029437576" r="4"/></g><g class="orgao pequeno" style="cursor: pointer;"><circle cx="850.6859853649044" cy="618.1893244398318" r="4"/></g><g class="orgao pequeno" style="cursor: pointer;"><circle cx="1015" cy="749.6898056241075" r="4"/></g><g class="orgao pequeno" style="cursor: pointer;"><circle cx="206.42462008624977" cy="296.3708807311789" r="3"/><text text-anchor="middle" x="206.42462008624977" y="292.3708807311789">ELETROBRAS</text></g><g class="orgao pequeno" style="cursor: pointer;"><circle cx="404.0751883682104" cy="437.43395631084667" r="3"/><text text-anchor="middle" x="404.0751883682104" y="433.43395631084667">CERON</text></g><g class="orgao pequeno" style="cursor: pointer;"><circle cx="702.9340205504301" cy="433.61659941297006" r="3"/><text text-anchor="middle" x="702.9340205504301" y="429.61659941297006">ELETRONORTE</text></g><g class="orgao pequeno" style="cursor: pointer;"><circle cx="695.8123541142786" cy="670.5633357782269" r="4"/></g><g class="orgao pequeno" style="cursor: pointer;"><circle cx="866.20202056" cy="671.100123909048" r="4"/></g><g class="orgao pequeno" style="cursor: pointer;"><circle cx="704.1689924799999" cy="666.0868428185876" r="4"/></g><g class="orgao pequeno" style="cursor: pointer;"><circle cx="135" cy="711.5398951550565" r="3"/><text text-anchor="middle" x="135" y="707.5398951550565">CEITEC</text></g><g class="orgao pequeno" style="cursor: pointer;"><circle cx="135" cy="547.6926780984959" r="4"/></g><g class="orgao pequeno" style="cursor: pointer;"><circle cx="1015" cy="647.5110556231211" r="4"/></g><g class="orgao pequeno" style="cursor: pointer;"><circle cx="392.27734472" cy="399.9855082525596" r="3"/><text text-anchor="middle" x="392.27734472" y="395.9855082525596">COMAER</text></g><g class="orgao pequeno" style="cursor: pointer;"><circle cx="890.1985865600001" cy="358.20385111247106" r="4"/></g><g class="orgao pequeno" style="cursor: pointer;"><circle cx="702.93402072" cy="361.23962316594515" r="3"/><text text-anchor="middle" x="702.93402072" y="357.23962316594515">CEX</text></g><g class="orgao pequeno" style="cursor: pointer;"><circle cx="702.93402072" cy="710.0157641077774" r="4"/></g><g class="orgao pequeno" style="cursor: pointer;"><circle cx="794.77740048" cy="613.5836955370812" r="4"/></g><g class="orgao pequeno" style="cursor: pointer;"><circle cx="941.29439352" cy="553.7162478102005" r="4"/></g><g class="orgao pequeno" style="cursor: pointer;"><circle cx="1015" cy="625.5362568321476" r="4"/></g><g class="orgao pequeno" style="cursor: pointer;"><circle cx="248.00610728451176" cy="820.6880893909788" r="3"/><text text-anchor="middle" x="248.00610728451176" y="816.6880893909788">CASEMG</text></g><g class="orgao pequeno" style="cursor: pointer;"><circle cx="1015" cy="415.025739387838" r="4"/></g><g class="orgao pequeno" style="cursor: pointer;"><circle cx="1015" cy="524.4847415521593" r="4"/></g><g class="orgao pequeno" style="cursor: pointer;"><circle cx="683.7502328146459" cy="526.7945394236671" r="4"/></g><g class="orgao pequeno" style="cursor: pointer;"><circle cx="630.63771752" cy="605.6395995512437" r="4"/></g><g class="orgao pequeno" style="cursor: pointer;"><circle cx="562.9338270401031" cy="735.1194389689042" r="4"/></g><g class="orgao pequeno" style="cursor: pointer;"><circle cx="811.3854848934542" cy="664.4101241046146" r="4"/></g><g class="orgao pequeno" style="cursor: pointer;"><circle cx="1015" cy="552.9211488414484" r="4"/></g><g class="orgao pequeno" style="cursor: pointer;"><circle cx="866.2020207820882" cy="696.1739294822669" r="4"/></g><g class="orgao pequeno" style="cursor: pointer;"><circle cx="662.3014689076895" cy="651.0611382297532" r="4"/></g><g class="orgao pequeno" style="cursor: pointer;"><circle cx="941.2943931869385" cy="723.3580021887137" r="4"/></g><g class="orgao pequeno" style="cursor: pointer;"><circle cx="458.68695380114366" cy="488.3342455002321" r="3"/><text text-anchor="middle" x="458.68695380114366" y="484.3342455002321">CEAL</text></g><g class="orgao pequeno" style="cursor: pointer;"><circle cx="612.325612728396" cy="414.8116005836937" r="3"/><text text-anchor="middle" x="612.325612728396" y="410.8116005836937">CHESF</text></g><g class="orgao pequeno" style="cursor: pointer;"><circle cx="832.54821224" cy="382.87956931899424" r="3"/><text text-anchor="middle" x="832.54821224" y="378.87956931899424">CONAB</text></g><g class="orgao pequeno" style="cursor: pointer;"><circle cx="505.28345199999995" cy="805.4418604411223" r="4"/></g><g class="orgao pequeno" style="cursor: pointer;"><circle cx="798.3552068" cy="699.6850999638804" r="4"/></g><g class="orgao pequeno" style="cursor: pointer;"><circle cx="758.84260488" cy="705.2869089322519" r="4"/></g><g class="orgao pequeno" style="cursor: pointer;"><circle cx="1015" cy="480.2272778548013" r="4"/></g><g class="orgao pequeno" style="cursor: pointer;"><circle cx="1015" cy="463.2398606252673" r="4"/></g><g class="orgao pequeno" style="cursor: pointer;"><circle cx="1015" cy="493.43721711785236" r="4"/></g><g class="orgao pequeno" style="cursor: pointer;"><circle cx="1015" cy="302.7577437201643" r="3"/><text text-anchor="middle" x="1015" y="298.7577437201643">DNIT</text></g><g class="orgao pequeno" style="cursor: pointer;"><circle cx="1015" cy="475.14313321532256" r="4"/></g><g class="orgao pequeno" style="cursor: pointer;"><circle cx="513.3605661468362" cy="431.48022712679733" r="3"/><text text-anchor="middle" x="513.3605661468362" y="427.48022712679733">ELETRONUCLEAR</text></g><g class="orgao pequeno" style="cursor: pointer;"><circle cx="210.09237240485112" cy="496.8677695799812" r="3"/><text text-anchor="middle" x="210.09237240485112" y="492.8677695799812">ELETROSUL</text></g><g class="orgao pequeno" style="cursor: pointer;"><circle cx="484.12072536" cy="586.6932520325176" r="4"/></g><g class="orgao pequeno" style="cursor: pointer;"><circle cx="438.26819374198516" cy="353.11633337286474" r="3"/><text text-anchor="middle" x="438.26819374198516" y="349.11633337286474">ECT</text></g><g class="orgao pequeno" style="cursor: pointer;"><circle cx="775.5936129600533" cy="510.6575039983463" r="4"/></g><g class="orgao pequeno" style="cursor: pointer;"><circle cx="206.42462008624977" cy="445.7457930096078" r="3"/><text text-anchor="middle" x="206.42462008624977" y="441.7457930096078">INFRAERO</text></g><g class="orgao pequeno" style="cursor: pointer;"><circle cx="135" cy="529.3001496908818" r="4"/></g><g class="orgao pequeno" style="cursor: pointer;"><circle cx="505.28345199999995" cy="496.2333250498642" r="3"/><text text-anchor="middle" x="505.28345199999995" y="492.2333250498642">EBSERH</text></g><g class="orgao pequeno" style="cursor: pointer;"><circle cx="866.20202056" cy="701.3096366651762" r="4"/></g><g class="orgao pequeno" style="cursor: pointer;"><circle cx="351.6447932" cy="657.8923632279966" r="4"/></g><g class="orgao pequeno" style="cursor: pointer;"><circle cx="530.1115738873934" cy="536.4499728833712" r="4"/></g><g class="orgao pequeno" style="cursor: pointer;"><circle cx="612.32561272" cy="663.1796886518944" r="4"/></g><g class="orgao pequeno" style="cursor: pointer;"><circle cx="570.744125530134" cy="689.9816792589503" r="4"/></g><g class="orgao pequeno" style="cursor: pointer;"><circle cx="135" cy="585.1443029193715" r="4"/></g><g class="orgao pequeno" style="cursor: pointer;"><circle cx="662.5875056755416" cy="543.5655401166046" r="4"/></g><g class="orgao pequeno" style="cursor: pointer;"><circle cx="850.68598552" cy="730.8455487268965" r="4"/></g><g class="orgao pequeno" style="cursor: pointer;"><circle cx="924.391592" cy="407.80740772047574" r="4"/></g><g class="orgao pequeno" style="cursor: pointer;"><circle cx="600.70463808" cy="751.2254052045671" r="4"/></g><g class="orgao pequeno" style="cursor: pointer;"><circle cx="1015" cy="735.8484532185754" r="4"/></g><g class="orgao pequeno" style="cursor: pointer;"><circle cx="670.15031944" cy="527.8389313136017" r="4"/></g><g class="orgao pequeno" style="cursor: pointer;"><circle cx="941.29439352" cy="708.1139365739309" r="4"/></g><g class="orgao pequeno" style="cursor: pointer;"><circle cx="941.29439352" cy="759.2497771167422" r="4"/></g><g class="orgao pequeno" style="cursor: pointer;"><circle cx="1015" cy="665.1492477000895" r="4"/></g><g class="orgao pequeno" style="cursor: pointer;"><circle cx="817.3494312800001" cy="422.5465466678159" r="3"/><text text-anchor="middle" x="817.3494312800001" y="418.5465466678159">FUNASA</text></g><g class="orgao pequeno" style="cursor: pointer;"><circle cx="866.20202056" cy="597.3317107276055" r="4"/></g><g class="orgao pequeno" style="cursor: pointer;"><circle cx="941.29439352" cy="478.57878638447886" r="4"/></g><g class="orgao pequeno" style="cursor: pointer;"><circle cx="783.15642672" cy="554.522121314547" r="4"/></g><g class="orgao pequeno" style="cursor: pointer;"><circle cx="866.20202056" cy="618.3593234979969" r="4"/></g><g class="orgao pequeno" style="cursor: pointer;"><circle cx="687.73524064" cy="657.304219957749" r="4"/></g><g class="orgao pequeno" style="cursor: pointer;"><circle cx="924.391592" cy="673.5606081695796" r="4"/></g><g class="orgao pequeno" style="cursor: pointer;"><circle cx="210.09237208000002" cy="625.1945588078947" r="4"/></g><g class="orgao pequeno" style="cursor: pointer;"><circle cx="206.42462008" cy="607.7322661615935" r="4"/></g><g class="orgao pequeno" style="cursor: pointer;"><circle cx="850.68598552" cy="668.7693686107868" r="4"/></g><g class="orgao pequeno" style="cursor: pointer;"><circle cx="605.2039460799999" cy="648.899386713068" r="4"/></g><g class="orgao pequeno" style="cursor: pointer;"><circle cx="775.59361256" cy="663.959947871663" r="4"/></g><g class="orgao pequeno" style="cursor: pointer;"><circle cx="775.59361256" cy="656.7518365591898" r="4"/></g><g class="orgao pequeno" style="cursor: pointer;"><circle cx="794.77740048" cy="630.825739002006" r="4"/></g><g class="orgao pequeno" style="cursor: pointer;"><circle cx="850.68598552" cy="602.2278439219999" r="4"/></g><g class="orgao pequeno" style="cursor: pointer;"><circle cx="1015" cy="632.6813608566395" r="4"/></g><g class="orgao pequeno" style="cursor: pointer;"><circle cx="924.391592" cy="655.2643352089958" r="4"/></g><g class="orgao pequeno" style="cursor: pointer;"><circle cx="775.59361256" cy="636.3928776739053" r="4"/></g><g class="orgao pequeno" style="cursor: pointer;"><circle cx="570.74412552" cy="588.1015000055226" r="4"/></g><g class="orgao pequeno" style="cursor: pointer;"><circle cx="941.29439352" cy="635.181346084793" r="4"/></g><g class="orgao pequeno" style="cursor: pointer;"><circle cx="775.59361256" cy="671.1380764001586" r="4"/></g><g class="orgao pequeno" style="cursor: pointer;"><circle cx="704.1689924799999" cy="609.2540439256561" r="4"/></g><g class="orgao pequeno" style="cursor: pointer;"><circle cx="907.95783928" cy="656.1781713073145" r="4"/></g><g class="orgao pequeno" style="cursor: pointer;"><circle cx="683.7502327999999" cy="637.9536550218538" r="4"/></g><g class="orgao pequeno" style="cursor: pointer;"><circle cx="794.77740048" cy="694.0075185742124" r="4"/></g><g class="orgao pequeno" style="cursor: pointer;"><circle cx="1015" cy="487.9403215675967" r="4"/></g><g class="orgao pequeno" style="cursor: pointer;"><circle cx="704.1689924799999" cy="262.26128992952795" r="3"/><text text-anchor="middle" x="704.1689924799999" y="258.26128992952795">FNDE</text></g><g class="orgao pequeno" style="cursor: pointer;"><circle cx="1015" cy="479.4343391119301" r="4"/></g><g class="orgao pequeno" style="cursor: pointer;"><circle cx="259.8014131958088" cy="404.66881782217195" r="3"/><text text-anchor="middle" x="259.8014131958088" y="400.66881782217195">FURNAS</text></g><g class="orgao pequeno" style="cursor: pointer;"><circle cx="380.48203907266077" cy="575.8406471052367" r="4"/></g><g class="orgao pequeno" style="cursor: pointer;"><circle cx="597.12683264" cy="762.2454251605138" r="4"/></g><g class="orgao pequeno" style="cursor: pointer;"><circle cx="505.28345199999995" cy="790.582197889375" r="4"/></g><g class="orgao pequeno" style="cursor: pointer;"><circle cx="702.93402072" cy="784.1684485535831" r="4"/></g><g class="orgao pequeno" style="cursor: pointer;"><circle cx="1015" cy="676.1432652667568" r="4"/></g><g class="orgao pequeno" style="cursor: pointer;"><circle cx="380.48203944" cy="694.849758805006" r="3"/><text text-anchor="middle" x="380.48203944" y="690.849758805006">HC-UFU</text></g><g class="orgao pequeno" style="cursor: pointer;"><circle cx="505.28345199999995" cy="765.264401727736" r="4"/></g><g class="orgao pequeno" style="cursor: pointer;"><circle cx="576.70807208" cy="750.4545335302453" r="4"/></g><g class="orgao pequeno" style="cursor: pointer;"><circle cx="704.1689924799999" cy="588.1665438289991" r="4"/></g><g class="orgao pequeno" style="cursor: pointer;"><circle cx="505.28345199999995" cy="822.0868521031578" r="4"/></g><g class="orgao pequeno" style="cursor: pointer;"><circle cx="355.22259952" cy="561.9827305514443" r="4"/></g><g class="orgao pequeno" style="cursor: pointer;"><circle cx="1015" cy="784.1832275192282" r="4"/></g><g class="orgao pequeno" style="cursor: pointer;"><circle cx="1015" cy="785.1208251126302" r="4"/></g><g class="orgao pequeno" style="cursor: pointer;"><circle cx="505.28345199999995" cy="686.6302123424841" r="4"/></g><g class="orgao pequeno" style="cursor: pointer;"><circle cx="1015" cy="774.7251357335227" r="4"/></g><g class="orgao pequeno" style="cursor: pointer;"><circle cx="745.9248112" cy="784.2315984719368" r="4"/></g><g class="orgao pequeno" style="cursor: pointer;"><circle cx="1015" cy="699.9238393630962" r="4"/></g><g class="orgao pequeno" style="cursor: pointer;"><circle cx="832.54821224" cy="637.0711065458516" r="4"/></g><g class="orgao pequeno" style="cursor: pointer;"><circle cx="683.7502327999999" cy="526.778704288083" r="4"/></g><g class="orgao pequeno" style="cursor: pointer;"><circle cx="1015" cy="737.1362453807972" r="4"/></g><g class="orgao pequeno" style="cursor: pointer;"><circle cx="267.47593216" cy="644.0978941285141" r="4"/></g><g class="orgao pequeno" style="cursor: pointer;"><circle cx="941.29439352" cy="646.5691237830699" r="4"/></g><g class="orgao pequeno" style="cursor: pointer;"><circle cx="924.391592" cy="556.667490790468" r="4"/></g><g class="orgao pequeno" style="cursor: pointer;"><circle cx="924.391592" cy="569.602581157568" r="4"/></g><g class="orgao pequeno" style="cursor: pointer;"><circle cx="612.32561272" cy="697.7051418683321" r="4"/></g><g class="orgao pequeno" style="cursor: pointer;"><circle cx="692.54801872" cy="752.7833382122482" r="4"/></g><g class="orgao pequeno" style="cursor: pointer;"><circle cx="849.45101288" cy="565.5283140954089" r="4"/></g><g class="orgao pequeno" style="cursor: pointer;"><circle cx="779.26136544" cy="659.1096699098907" r="4"/></g><g class="orgao pequeno" style="cursor: pointer;"><circle cx="774.3586408" cy="657.8876737801793" r="4"/></g><g class="orgao pequeno" style="cursor: pointer;"><circle cx="1015" cy="633.2652993977359" r="4"/></g><g class="orgao pequeno" style="cursor: pointer;"><circle cx="758.84260488" cy="644.9917737905423" r="4"/></g><g class="orgao pequeno" style="cursor: pointer;"><circle cx="484.12072536" cy="647.9020959131126" r="4"/></g><g class="orgao pequeno" style="cursor: pointer;"><circle cx="779.26136544" cy="682.3082633081698" r="4"/></g><g class="orgao pequeno" style="cursor: pointer;"><circle cx="472.3254192" cy="678.5313586023011" r="4"/></g><g class="orgao pequeno" style="cursor: pointer;"><circle cx="1015" cy="652.8658484431594" r="4"/></g><g class="orgao pequeno" style="cursor: pointer;"><circle cx="135" cy="641.3775407590217" r="4"/></g><g class="orgao pequeno" style="cursor: pointer;"><circle cx="683.7502327999999" cy="675.2022432223595" r="4"/></g><g class="orgao pequeno" style="cursor: pointer;"><circle cx="941.29439352" cy="693.7357494934174" r="4"/></g><g class="orgao pequeno" style="cursor: pointer;"><circle cx="907.95783928" cy="636.7834607846455" r="4"/></g><g class="orgao pequeno" style="cursor: pointer;"><circle cx="484.12072536" cy="611.1734220277748" r="4"/></g><g class="orgao pequeno" style="cursor: pointer;"><circle cx="135" cy="680.8436410135743" r="3"/><text text-anchor="middle" x="135" y="676.8436410135743">IFS</text></g><g class="orgao pequeno" style="cursor: pointer;"><circle cx="267.47593216" cy="710.1882253230586" r="3"/><text text-anchor="middle" x="267.47593216" y="706.1882253230586">IFAC</text></g><g class="orgao pequeno" style="cursor: pointer;"><circle cx="451.90665951999995" cy="709.6963001697181" r="4"/></g><g class="orgao pequeno" style="cursor: pointer;"><circle cx="612.32561272" cy="655.6725468932569" r="4"/></g><g class="orgao pequeno" style="cursor: pointer;"><circle cx="1015" cy="618.1152939920139" r="4"/></g><g class="orgao pequeno" style="cursor: pointer;"><circle cx="555.54534544" cy="645.8467358632058" r="4"/></g><g class="orgao pequeno" style="cursor: pointer;"><circle cx="587.0661728" cy="629.981308650895" r="4"/></g><g class="orgao pequeno" style="cursor: pointer;"><circle cx="351.6447932" cy="641.225822035693" r="4"/></g><g class="orgao pequeno" style="cursor: pointer;"><circle cx="683.7502327999999" cy="708.5564374454809" r="4"/></g><g class="orgao pequeno" style="cursor: pointer;"><circle cx="941.29439352" cy="655.4960768958591" r="4"/></g><g class="orgao pequeno" style="cursor: pointer;"><circle cx="455.57441151999996" cy="654.7927100869026" r="4"/></g><g class="orgao pequeno" style="cursor: pointer;"><circle cx="924.391592" cy="630.2015579495637" r="4"/></g><g class="orgao pequeno" style="cursor: pointer;"><circle cx="1015" cy="657.7028382653771" r="4"/></g><g class="orgao pequeno" style="cursor: pointer;"><circle cx="941.29439352" cy="671.5746481162373" r="4"/></g><g class="orgao pequeno" style="cursor: pointer;"><circle cx="570.74412552" cy="613.8264074534297" r="4"/></g><g class="orgao pequeno" style="cursor: pointer;"><circle cx="941.29439352" cy="661.350783767575" r="4"/></g><g class="orgao pequeno" style="cursor: pointer;"><circle cx="1015" cy="702.9979988611897" r="4"/></g><g class="orgao pequeno" style="cursor: pointer;"><circle cx="484.12072536" cy="675.2575043562052" r="4"/></g><g class="orgao pequeno" style="cursor: pointer;"><circle cx="426.47288808" cy="666.9392684520875" r="4"/></g><g class="orgao pequeno" style="cursor: pointer;"><circle cx="683.7502327999999" cy="672.7937591947705" r="4"/></g><g class="orgao pequeno" style="cursor: pointer;"><circle cx="1015" cy="698.3108956727028" r="4"/></g><g class="orgao pequeno" style="cursor: pointer;"><circle cx="941.29439352" cy="677.7552848165756" r="4"/></g><g class="orgao pequeno" style="cursor: pointer;"><circle cx="1015" cy="658.7014644583934" r="4"/></g><g class="orgao pequeno" style="cursor: pointer;"><circle cx="702.93402072" cy="656.7044084253774" r="4"/></g><g class="orgao pequeno" style="cursor: pointer;"><circle cx="941.29439352" cy="667.1190941080681" r="4"/></g><g class="orgao pequeno" style="cursor: pointer;"><circle cx="579.36757992" cy="655.8583355450611" r="4"/></g><g class="orgao pequeno" style="cursor: pointer;"><circle cx="355.22259952" cy="447.1195499720105" r="3"/><text text-anchor="middle" x="355.22259952" y="443.1195499720105">INCRA</text></g><g class="orgao pequeno" style="cursor: pointer;"><circle cx="1015" cy="691.2679559896202" r="4"/></g><g class="orgao pequeno" style="cursor: pointer;"><circle cx="1015" cy="466.8402014254315" r="4"/></g><g class="orgao pequeno" style="cursor: pointer;"><circle cx="923.1566202399999" cy="620.3477913281739" r="4"/></g><g class="orgao pequeno" style="cursor: pointer;"><circle cx="634.35844728" cy="793.767100765808" r="4"/></g><g class="orgao pequeno" style="cursor: pointer;"><circle cx="907.95783928" cy="430.43559811329203" r="4"/></g><g class="orgao pequeno" style="cursor: pointer;"><circle cx="941.2943931869385" cy="428.90895626080834" r="4"/></g><g class="orgao pequeno" style="cursor: pointer;"><circle cx="1015" cy="402.91748128998705" r="4"/></g><g class="orgao pequeno" style="cursor: pointer;"><circle cx="1015" cy="466.42289870907604" r="4"/></g><g class="orgao pequeno" style="cursor: pointer;"><circle cx="1015" cy="553.7749951093222" r="4"/></g><g class="orgao pequeno" style="cursor: pointer;"><circle cx="1015" cy="447.5656403017632" r="4"/></g><g class="orgao pequeno" style="cursor: pointer;"><circle cx="612.32561272" cy="407.4542994119821" r="3"/><text text-anchor="middle" x="612.32561272" y="403.4542994119821">MEC</text></g><g class="orgao pequeno" style="cursor: pointer;"><circle cx="1015" cy="475.44395555493537" r="4"/></g><g class="orgao pequeno" style="cursor: pointer;"><circle cx="1015" cy="566.9499203612975" r="4"/></g><g class="orgao pequeno" style="cursor: pointer;"><circle cx="1015" cy="354.61723072907114" r="4"/></g><g class="orgao pequeno" style="cursor: pointer;"><circle cx="1015" cy="514.9531301262107" r="4"/></g><g class="orgao pequeno" style="cursor: pointer;"><circle cx="1015" cy="245.44468008084345" r="3"/><text text-anchor="middle" x="1015" y="241.44468008084345">MS</text></g><g class="orgao pequeno" style="cursor: pointer;"><circle cx="1015" cy="638.5594937322611" r="4"/></g><g class="orgao pequeno" style="cursor: pointer;"><circle cx="1015" cy="322.2778761545075" r="3"/><text text-anchor="middle" x="1015" y="318.2778761545075">MCidades</text></g><g class="orgao pequeno" style="cursor: pointer;"><circle cx="1015" cy="466.59631749318237" r="4"/></g><g class="orgao pequeno" style="cursor: pointer;"><circle cx="1015" cy="589.7971264619366" r="4"/></g><g class="orgao pequeno" style="cursor: pointer;"><circle cx="1015" cy="273.63652114638796" r="3"/><text text-anchor="middle" x="1015" y="269.63652114638796">MDS</text></g><g class="orgao pequeno" style="cursor: pointer;"><circle cx="1015" cy="389.93824412702986" r="4"/></g><g class="orgao pequeno" style="cursor: pointer;"><circle cx="1015" cy="640.6751210252717" r="4"/></g><g class="orgao pequeno" style="cursor: pointer;"><circle cx="1015" cy="460.4119415704406" r="4"/></g><g class="orgao pequeno" style="cursor: pointer;"><circle cx="1015" cy="384.87602112919774" r="4"/></g><g class="orgao pequeno" style="cursor: pointer;"><circle cx="1015" cy="333.58731433067334" r="3"/><text text-anchor="middle" x="1015" y="329.58731433067334">MTur</text></g><g class="orgao pequeno" style="cursor: pointer;"><circle cx="1015" cy="501.71646327077866" r="4"/></g><g class="orgao pequeno" style="cursor: pointer;"><circle cx="1015" cy="449.59846479961016" r="4"/></g><g class="orgao pequeno" style="cursor: pointer;"><circle cx="683.7502327999999" cy="664.239954628317" r="4"/></g><g class="orgao pequeno" style="cursor: pointer;"><circle cx="135" cy="191.41586807233887" r="3"/><text text-anchor="middle" x="135" y="187.41586807233887">BR</text></g><g class="orgao pequeno" style="cursor: pointer;"><circle cx="683.7502328146459" cy="814.9492171093746" r="4"/></g><g class="orgao pequeno" style="cursor: pointer;"><circle cx="681.7712934113267" cy="403.48413532548875" r="3"/><text text-anchor="middle" x="681.7712934113267" y="399.48413532548875">TRANSPETRO</text></g><g class="orgao pequeno" style="cursor: pointer;"><circle cx="135" cy="83.23608195493875" r="3"/><text text-anchor="middle" x="135" y="79.23608195493875">PETROBRAS</text></g><g class="orgao pequeno" style="cursor: pointer;"><circle cx="1015" cy="556.2232932876185" r="4"/></g><g class="orgao pequeno" style="cursor: pointer;"><circle cx="866.20202056" cy="410.1958797335172" r="3"/><text text-anchor="middle" x="866.20202056" y="406.1958797335172">RFB</text></g><g class="orgao pequeno" style="cursor: pointer;"><circle cx="1015" cy="465.4498565476848" r="4"/></g><g class="orgao pequeno" style="cursor: pointer;"><circle cx="612.325612728396" cy="501.6884922543437" r="3"/><text text-anchor="middle" x="612.325612728396" y="497.6884922543437">SERPRO</text></g><g class="orgao pequeno" style="cursor: pointer;"><circle cx="1015" cy="636.1766274263928" r="4"/></g><g class="orgao pequeno" style="cursor: pointer;"><circle cx="941.2943931869385" cy="501.0388488711132" r="4"/></g><g class="orgao pequeno" style="cursor: pointer;"><circle cx="924.391592" cy="526.9444841154657" r="4"/></g><g class="orgao pequeno" style="cursor: pointer;"><circle cx="794.77740048" cy="744.6596845389162" r="4"/></g><g class="orgao pequeno" style="cursor: pointer;"><circle cx="1015" cy="434.1371399174099" r="4"/></g><g class="orgao pequeno" style="cursor: pointer;"><circle cx="794.77740048" cy="493.54049303600874" r="3"/><text text-anchor="middle" x="794.77740048" y="489.54049303600874">SUDECO</text></g><g class="orgao pequeno" style="cursor: pointer;"><circle cx="135" cy="574.3976057546587" r="4"/></g><g class="orgao pequeno" style="cursor: pointer;"><circle cx="392.27734472" cy="746.5880218535624" r="3"/><text text-anchor="middle" x="392.27734472" y="742.5880218535624">PREVIC</text></g><g class="orgao pequeno" style="cursor: pointer;"><circle cx="555.5453452156149" cy="559.8043930511903" r="4"/></g><g class="orgao pequeno" style="cursor: pointer;"><circle cx="438.26819374198516" cy="619.4369991913146" r="4"/></g><g class="orgao pequeno" style="cursor: pointer;"><circle cx="924.391592" cy="690.2798746196336" r="4"/></g><g class="orgao pequeno" style="cursor: pointer;"><circle cx="775.59361256" cy="592.442745600491" r="4"/></g><g class="orgao pequeno" style="cursor: pointer;"><circle cx="267.47593216" cy="644.3167301020073" r="4"/></g><g class="orgao pequeno" style="cursor: pointer;"><circle cx="579.5419114399999" cy="666.6041489020304" r="4"/></g><g class="orgao pequeno" style="cursor: pointer;"><circle cx="794.77740048" cy="589.2213335363022" r="4"/></g><g class="orgao pequeno" style="cursor: pointer;"><circle cx="1015" cy="625.4655059461419" r="4"/></g><g class="orgao pequeno" style="cursor: pointer;"><circle cx="758.84260488" cy="708.3470312663472" r="4"/></g><g class="orgao pequeno" style="cursor: pointer;"><circle cx="778.0263927999999" cy="630.5166165594405" r="4"/></g><g class="orgao pequeno" style="cursor: pointer;"><circle cx="226.84337976" cy="607.5028737906453" r="4"/></g><g class="orgao pequeno" style="cursor: pointer;"><circle cx="941.29439352" cy="691.1497129767763" r="4"/></g><g class="orgao pequeno" style="cursor: pointer;"><circle cx="597.12683264" cy="569.7573879843899" r="4"/></g><g class="orgao pequeno" style="cursor: pointer;"><circle cx="226.84337976" cy="651.84395448078" r="4"/></g><g class="orgao pequeno" style="cursor: pointer;"><circle cx="1015" cy="574.6981421073929" r="4"/></g><g class="orgao pequeno" style="cursor: pointer;"><circle cx="794.77740048" cy="585.8057685428159" r="4"/></g><g class="orgao pequeno" style="cursor: pointer;"><circle cx="866.20202056" cy="671.0008211653497" r="4"/></g><g class="orgao pequeno" style="cursor: pointer;"><circle cx="941.29439352" cy="589.4673406809119" r="4"/></g><g class="orgao pequeno" style="cursor: pointer;"><circle cx="709.45081936" cy="612.7327227738565" r="4"/></g><g class="orgao pequeno" style="cursor: pointer;"><circle cx="487.6985308" cy="631.1149771977642" r="4"/></g><g class="orgao pequeno" style="cursor: pointer;"><circle cx="380.48203944" cy="612.0153490444491" r="4"/></g><g class="orgao pequeno" style="cursor: pointer;"><circle cx="775.59361256" cy="693.935714051105" r="4"/></g><g class="orgao pequeno" style="cursor: pointer;"><circle cx="505.28345199999995" cy="585.3456652754937" r="4"/></g><g class="orgao pequeno" style="cursor: pointer;"><circle cx="484.12072536" cy="588.9351070495769" r="4"/></g><g class="orgao pequeno" style="cursor: pointer;"><circle cx="462.26475936" cy="673.1263579142462" r="4"/></g><g class="orgao pequeno" style="cursor: pointer;"><circle cx="1015" cy="722.9328053985206" r="4"/></g><g class="orgao pequeno" style="cursor: pointer;"><circle cx="850.68598552" cy="668.8055576638931" r="4"/></g><g class="orgao pequeno" style="cursor: pointer;"><circle cx="1015" cy="593.0028554599207" r="4"/></g><g class="orgao pequeno" style="cursor: pointer;"><circle cx="850.68598552" cy="584.8233076593465" r="4"/></g><g class="orgao pequeno" style="cursor: pointer;"><circle cx="600.70463808" cy="675.8560917138681" r="4"/></g><g class="orgao pequeno" style="cursor: pointer;"><circle cx="725.88457208" cy="547.5687619354185" r="4"/></g><g class="orgao pequeno" style="cursor: pointer;"><circle cx="1015" cy="577.9366541728577" r="4"/></g><g class="orgao pequeno" style="cursor: pointer;"><circle cx="924.391592" cy="591.9216730740582" r="4"/></g><g class="orgao pequeno" style="cursor: pointer;"><circle cx="817.3494312800001" cy="737.8746142911092" r="4"/></g><g class="orgao pequeno" style="cursor: pointer;"><circle cx="704.1689924799999" cy="718.9614454067487" r="4"/></g><g class="orgao pequeno" style="cursor: pointer;"><circle cx="794.77740048" cy="659.1019015342047" r="4"/></g><g class="orgao pequeno" style="cursor: pointer;"><circle cx="505.28345199999995" cy="682.7256795495526" r="4"/></g><g class="orgao pequeno" style="cursor: pointer;"><circle cx="850.68598552" cy="589.3727347635667" r="4"/></g><g class="orgao pequeno" style="cursor: pointer;"><circle cx="484.12072536" cy="693.0187671591523" r="4"/></g><g class="orgao pequeno" style="cursor: pointer;"><circle cx="226.84337976" cy="650.7338255955435" r="4"/></g><g class="orgao pequeno" style="cursor: pointer;"><circle cx="923.1566202399999" cy="652.0165980549649" r="4"/></g><g class="orgao pequeno" style="cursor: pointer;"><circle cx="662.58750528" cy="664.8473460356138" r="4"/></g><g class="orgao pequeno" style="cursor: pointer;"><circle cx="774.3586408" cy="587.2158389137555" r="4"/></g><g class="orgao pequeno" style="cursor: pointer;"><circle cx="380.48203944" cy="496.05608674095834" r="3"/><text text-anchor="middle" x="380.48203944" y="492.05608674095834">VALEC</text></g></g><text y="830" x="65" fill="black" style="font-weight: bolder;">10 mi</text><g><text fill="black" x="135" y="850" text-anchor="middle" font-weight="bolder">0</text><text fill="black" x="399" y="850" text-anchor="middle" font-weight="bolder">0.3</text><text fill="black" font-weight="bolder" x="663" y="850" text-anchor="middle">0.6</text><text fill="black" font-weight="bolder" x="883" y="850" text-anchor="middle">0.85</text><text fill="black" font-weight="bolder" x="1015" y="850" text-anchor="middle">1</text></g><text x="575" y="900" text-anchor="middle" fill="black">Índice de Fragilidade de Controles na Auditoria Interna</text></svg>